<svg viewBox="132 217.9692 396 224.0615" width="5000" height="2829.059343434343" xmlns="http://www.w3.org/2000/svg" xmlns:xlink="http://www.w3.org/1999/xlink" preserveAspectRatio="none"><defs></defs><style>.aD6z1nYkhcolor {fill:#000000;fill-opacity:1;}.aIptOCySncolors-0 {fill:#000000;fill-opacity:1;}</style><g opacity="1" transform="rotate(0 270.6 217.9692)">
<svg width="118.8" height="136.8816" x="270.6" y="217.9692" version="1.1" preserveAspectRatio="none" viewBox="14.119999885559082 9.420000076293944 61.7599983215332 71.16000366210938">
  <g transform="matrix(1 0 0 1 0 0)" class="aIptOCySncolors-0"><title>Shape 022</title><path d="M45.13,9.42,14.25,27.1l-.13,35.58,30.75,17.9L75.75,62.9l.13-35.58Zm-29,52.11.12-33.27L45.12,11.73,73.87,28.47h0L45,45l-.12,33.27Z"></path></g>
</svg>
</g><g opacity="1" transform="rotate(0 132 395.255)">
<svg width="396" height="46.7757" x="132" y="395.255" version="1.1" preserveAspectRatio="none" viewBox="0.8 -29.6 252.96 29.880000000000003">
  <g transform="matrix(1 0 0 1 0 0)" class="aD6z1nYkhcolor"><path d="M12.32-22.84Q16.72-22.84 19.74-20.36Q22.76-17.88 23.56-13.48L23.56-13.48L14.16-13.48Q13.64-15.24 12.12-15.24L12.12-15.24Q11.04-15.24 10.42-14.24Q9.80-13.24 9.80-11.28L9.80-11.28Q9.80-9.32 10.42-8.32Q11.04-7.32 12.12-7.32L12.12-7.32Q13.64-7.32 14.16-9.08L14.16-9.08L23.56-9.08Q22.76-4.68 19.74-2.20Q16.72 0.28 12.32 0.28L12.32 0.28Q8.96 0.28 6.34-1.12Q3.72-2.52 2.26-5.14Q0.80-7.76 0.80-11.28L0.80-11.28Q0.80-14.80 2.26-17.42Q3.72-20.04 6.34-21.44Q8.96-22.84 12.32-22.84L12.32-22.84Z M35.24-18.40Q36.60-20.36 38.56-21.54Q40.52-22.72 42.64-22.72L42.64-22.72L42.64-13.24L40.12-13.24Q37.60-13.24 36.42-12.36Q35.24-11.48 35.24-9.24L35.24-9.24L35.24 0L26.36 0L26.36-22.56L35.24-22.56L35.24-18.40Z M55.76-22.84Q59.16-22.84 61.88-21.44Q64.60-20.04 66.14-17.42Q67.68-14.80 67.68-11.28L67.68-11.28Q67.68-7.76 66.14-5.14Q64.60-2.52 61.88-1.12Q59.16 0.28 55.76 0.28L55.76 0.28Q52.36 0.28 49.64-1.12Q46.92-2.52 45.38-5.14Q43.84-7.76 43.84-11.28L43.84-11.28Q43.84-14.80 45.38-17.42Q46.92-20.04 49.64-21.44Q52.36-22.84 55.76-22.84L55.76-22.84ZM55.76-15.16Q54.52-15.16 53.68-14.18Q52.84-13.20 52.84-11.28L52.84-11.28Q52.84-9.36 53.66-8.38Q54.48-7.40 55.76-7.40L55.76-7.40Q57-7.40 57.84-8.38Q58.68-9.36 58.68-11.28L58.68-11.28Q58.68-13.20 57.84-14.18Q57-15.16 55.76-15.16L55.76-15.16Z M79.36-22.84Q83.96-22.84 86.70-20.62Q89.44-18.40 90.16-14.76L90.16-14.76L81.88-14.76Q81.36-16.68 79.16-16.68L79.16-16.68Q77.92-16.68 77.92-15.72L77.92-15.72Q77.92-15.04 78.82-14.68Q79.72-14.32 81.68-13.92L81.68-13.92Q84.24-13.44 86.06-12.78Q87.88-12.12 89.20-10.64Q90.52-9.16 90.52-6.60L90.52-6.60Q90.52-4.60 89.40-3.04Q88.28-1.48 86.12-0.60Q83.96 0.28 81.04 0.28L81.04 0.28Q76.16 0.28 73.28-1.80Q70.40-3.88 69.72-7.80L69.72-7.80L78.24-7.80Q78.48-5.84 81-5.84L81-5.84Q82.36-5.84 82.36-6.80L82.36-6.80Q82.36-7.56 81.44-7.92Q80.52-8.28 78.48-8.64L78.48-8.64Q75.88-9.16 74.18-9.76Q72.48-10.36 71.20-11.80Q69.92-13.24 69.92-15.76L69.92-15.76Q69.92-17.80 71-19.40Q72.08-21 74.20-21.92Q76.32-22.84 79.36-22.84L79.36-22.84Z M102.52-22.84Q107.12-22.84 109.86-20.62Q112.60-18.40 113.32-14.76L113.32-14.76L105.04-14.76Q104.52-16.68 102.32-16.68L102.32-16.68Q101.08-16.68 101.08-15.72L101.08-15.72Q101.08-15.04 101.98-14.68Q102.88-14.32 104.84-13.92L104.84-13.92Q107.40-13.44 109.22-12.78Q111.04-12.12 112.36-10.64Q113.68-9.16 113.68-6.60L113.68-6.60Q113.68-4.60 112.56-3.04Q111.44-1.48 109.28-0.60Q107.12 0.28 104.20 0.28L104.20 0.28Q99.32 0.28 96.44-1.80Q93.56-3.88 92.88-7.80L92.88-7.80L101.40-7.80Q101.64-5.84 104.16-5.84L104.16-5.84Q105.52-5.84 105.52-6.80L105.52-6.80Q105.52-7.56 104.60-7.92Q103.68-8.28 101.64-8.64L101.64-8.64Q99.04-9.16 97.34-9.76Q95.64-10.36 94.36-11.80Q93.08-13.24 93.08-15.76L93.08-15.76Q93.08-17.80 94.16-19.40Q95.24-21 97.36-21.92Q99.48-22.84 102.52-22.84L102.52-22.84Z M131.88-22.84Q134.52-22.84 136.64-21.46Q138.76-20.08 139.98-17.46Q141.20-14.84 141.20-11.28L141.20-11.28Q141.20-7.72 139.98-5.10Q138.76-2.48 136.64-1.10Q134.52 0.28 131.88 0.28L131.88 0.28Q129.68 0.28 128.10-0.62Q126.52-1.52 125.68-3.08L125.68-3.08L125.68 0L116.80 0L116.80-29.60L125.68-29.60L125.68-19.48Q126.52-21.04 128.10-21.94Q129.68-22.84 131.88-22.84L131.88-22.84ZM128.92-15.08Q127.48-15.08 126.56-14.08Q125.64-13.08 125.64-11.28L125.64-11.28Q125.64-9.48 126.56-8.48Q127.48-7.48 128.92-7.48L128.92-7.48Q130.36-7.48 131.28-8.48Q132.20-9.48 132.20-11.28L132.20-11.28Q132.20-13.08 131.28-14.08Q130.36-15.08 128.92-15.08L128.92-15.08Z M144-29.60L152.88-29.60L152.88 0L144 0L144-29.60Z M167.60-22.84Q171-22.84 173.72-21.44Q176.44-20.04 177.98-17.42Q179.52-14.80 179.52-11.28L179.52-11.28Q179.52-7.76 177.98-5.14Q176.44-2.52 173.72-1.12Q171 0.28 167.60 0.28L167.60 0.28Q164.20 0.28 161.48-1.12Q158.76-2.52 157.22-5.14Q155.68-7.76 155.68-11.28L155.68-11.28Q155.68-14.80 157.22-17.42Q158.76-20.04 161.48-21.44Q164.20-22.84 167.60-22.84L167.60-22.84ZM167.60-15.16Q166.36-15.16 165.52-14.18Q164.68-13.20 164.68-11.28L164.68-11.28Q164.68-9.36 165.50-8.38Q166.32-7.40 167.60-7.40L167.60-7.40Q168.84-7.40 169.68-8.38Q170.52-9.36 170.52-11.28L170.52-11.28Q170.52-13.20 169.68-14.18Q168.84-15.16 167.60-15.16L167.60-15.16Z M192.64-22.84Q197.04-22.84 200.06-20.36Q203.08-17.88 203.88-13.48L203.88-13.48L194.48-13.48Q193.96-15.24 192.44-15.24L192.44-15.24Q191.36-15.24 190.74-14.24Q190.12-13.24 190.12-11.28L190.12-11.28Q190.12-9.32 190.74-8.32Q191.36-7.32 192.44-7.32L192.44-7.32Q193.96-7.32 194.48-9.08L194.48-9.08L203.88-9.08Q203.08-4.68 200.06-2.20Q197.04 0.28 192.64 0.28L192.64 0.28Q189.28 0.28 186.66-1.12Q184.04-2.52 182.58-5.14Q181.12-7.76 181.12-11.28L181.12-11.28Q181.12-14.80 182.58-17.42Q184.04-20.04 186.66-21.44Q189.28-22.84 192.64-22.84L192.64-22.84Z M231.72 0L221.12 0L215.56-9L215.56 0L206.68 0L206.68-29.60L215.56-29.60L215.56-14.12L221.20-22.56L231.52-22.56L223.08-11.20L231.72 0Z M242.60-22.84Q247.20-22.84 249.94-20.62Q252.68-18.40 253.40-14.76L253.40-14.76L245.12-14.76Q244.60-16.68 242.40-16.68L242.40-16.68Q241.16-16.68 241.16-15.72L241.16-15.72Q241.16-15.04 242.06-14.68Q242.96-14.32 244.92-13.92L244.92-13.92Q247.48-13.44 249.30-12.78Q251.12-12.12 252.44-10.64Q253.76-9.16 253.76-6.60L253.76-6.60Q253.76-4.60 252.64-3.04Q251.52-1.48 249.36-0.60Q247.20 0.28 244.28 0.28L244.28 0.28Q239.40 0.28 236.52-1.80Q233.64-3.88 232.96-7.80L232.96-7.80L241.48-7.80Q241.72-5.84 244.24-5.84L244.24-5.84Q245.60-5.84 245.60-6.80L245.60-6.80Q245.60-7.56 244.68-7.92Q243.76-8.28 241.72-8.64L241.72-8.64Q239.12-9.16 237.42-9.76Q235.72-10.36 234.44-11.80Q233.16-13.24 233.16-15.76L233.16-15.76Q233.16-17.80 234.24-19.40Q235.32-21 237.44-21.92Q239.56-22.84 242.60-22.84L242.60-22.84Z"/></g>
</svg>
</g></svg>